<svg xmlns="http://www.w3.org/2000/svg" width="100" height="100" viewBox="2 2 20.6 20.6">
  <title>Pipe</title>
  <path d="M4.9,6.9 a7.4,2.9 0 1 0 14.8,0 a7.4,2.9 0 1 0 -14.8,0 Z M8.9,6.9 a3.4,1.3 0 1 0 6.8,0 a3.4,1.3 0 1 0 -6.8,0 Z" fill-rule="evenodd" fill="#67C7E8" fill-opacity="0.45"/>
  <path d="M4.9,6.9 a7.4,2.9 0 1 0 14.8,0 a7.4,2.9 0 1 0 -14.8,0 Z" fill="none" stroke="#DADADA" stroke-width="1.6"/>
  <path d="M8.9,6.9 a3.4,1.3 0 1 0 6.8,0 a3.4,1.3 0 1 0 -6.8,0 Z" fill="none" stroke="#DADADA" stroke-width="1.3"/>
  <path d="M4.9 6.9 4.9 17.1M19.7 6.9 19.7 17.1" fill="none" stroke="#DADADA" stroke-width="1.6" stroke-linecap="round"/>
  <path d="M4.9 17.1a7.4 2.9 0 0 0 14.8 0" fill="none" stroke="#DADADA" stroke-width="1.6" stroke-linecap="round"/>
</svg>
